<svg width="448" height="43" viewBox="0 0 448 43" fill="none" xmlns="http://www.w3.org/2000/svg">
<path d="M11.7884 42C12.1043 40.5783 12.5387 39.0381 13.0916 37.3794C13.6445 35.6813 14.2369 33.9239 14.8688 32.1072C15.7771 29.7377 16.2312 27.5854 16.2312 25.6503C16.2312 25.4528 16.2312 25.2554 16.2312 25.0579C16.2312 24.821 16.2115 24.6037 16.172 24.4063C15.935 22.7081 15.5006 20.8125 14.8688 18.7194C14.2369 16.6264 13.5458 14.5728 12.7954 12.5587C12.0451 10.5841 11.196 8.88591 10.2482 7.46419C9.30038 6.04248 8.15511 5.33162 6.81238 5.33162C5.98305 5.33162 5.05498 5.68705 4.02819 6.39791C3.04089 7.10876 1.91537 8.29353 0.651619 9.95219C0.612127 9.99168 0.572635 10.0114 0.533143 10.0114C0.414667 10.0114 0.335683 9.87321 0.29619 9.59676C0.256698 9.32032 0.256698 9.12286 0.29619 9.00438C1.16502 7.26673 2.07333 5.76603 3.02114 4.50229C4.00844 3.23854 5.17346 2.29073 6.51619 1.65886C7.89841 0.987494 9.61632 0.711049 11.6699 0.829524C13.6445 0.908509 15.1057 1.65886 16.0535 3.08057C17.0013 4.50229 17.8504 6.4374 18.6008 8.88591C19.1931 10.9395 19.8053 13.151 20.4371 15.5206C21.069 17.8506 21.6417 20.0227 22.155 22.0368C23.6557 19.9832 25.2552 17.7321 26.9533 15.2836C28.6515 12.8351 30.3299 10.4261 31.9886 8.05657C33.6867 5.68705 35.2072 3.61372 36.5499 1.83657C36.9843 1.28368 37.6557 0.948001 38.564 0.829524C39.4723 0.671555 40.4201 0.592571 41.4074 0.592571C42.0393 0.592571 42.6514 0.612318 43.2438 0.651812C43.8362 0.651812 44.3496 0.651812 44.784 0.651812C43.0463 1.87606 41.1705 3.41625 39.1564 5.27238C37.1423 7.12851 35.1479 9.20184 33.1733 11.4924C31.4357 13.5065 29.6585 15.8957 27.8419 18.6602C26.0253 21.4246 24.3863 24.4063 22.9251 27.6051C21.4639 30.7645 20.3779 33.9831 19.667 37.261C19.5091 37.9323 19.3906 38.5642 19.3116 39.1566C19.2326 39.7095 19.1931 40.2031 19.1931 40.6375C19.1931 41.2694 19.2721 41.7236 19.4301 42H11.7884ZM35.168 42.4147C34.1412 42.4147 33.3119 41.8618 32.68 40.756C32.0481 39.6502 31.8112 38.189 31.9691 36.3724C32.0481 35.2271 32.3048 33.7857 32.7392 32.048C33.2131 30.2709 33.8055 28.4937 34.5164 26.7166C35.2272 24.8999 35.9776 23.3597 36.7674 22.096C37.7942 20.4768 38.9395 19.4303 40.2032 18.9564C41.5065 18.4825 43.1256 18.2455 45.0608 18.2455C45.2187 18.2455 45.2977 18.3245 45.2977 18.4825C45.2977 18.6404 45.1792 18.8379 44.9423 19.0749C44.3894 19.5488 43.7378 20.4176 42.9874 21.6813C42.2371 22.9451 41.5065 24.3273 40.7956 25.828C40.1242 27.3287 39.5319 28.7109 39.0185 29.9747C38.6235 31.0015 38.2484 32.0677 37.8929 33.1735C37.577 34.2793 37.419 35.2666 37.419 36.1354C37.419 36.8463 37.5573 37.4189 37.8337 37.8533C38.1496 38.2877 38.6828 38.505 39.4331 38.505C40.223 38.4655 41.0918 37.8928 42.0396 36.787C42.9874 35.6813 43.8957 34.3188 44.7646 32.6996C45.6334 31.0804 46.3442 29.5008 46.8971 27.9606C46.8181 27.5262 46.7392 27.072 46.6602 26.5981C46.6207 26.1242 46.6009 25.6305 46.6009 25.1171C46.6009 24.4063 46.6602 23.6757 46.7787 22.9253C46.9366 22.1355 47.1538 21.3654 47.4303 20.615C47.9437 19.3118 48.6545 18.5417 49.5628 18.3048C49.7208 18.2653 49.859 18.2455 49.9775 18.2455C50.1355 18.206 50.2934 18.1863 50.4514 18.1863C51.2018 18.1863 51.6954 18.4627 51.9324 19.0156C52.2088 19.529 52.347 20.1411 52.347 20.852C52.347 21.5629 52.2681 22.2737 52.1101 22.9846C51.9521 23.6559 51.8139 24.1693 51.6954 24.5248C51.419 25.2751 51.103 26.0057 50.7476 26.7166C50.3922 27.3879 50.0368 28.0593 49.6813 28.7307C49.7603 29.9549 50.0762 30.9027 50.6291 31.5741C51.2215 32.2455 51.9126 32.5811 52.7025 32.5811C53.6898 32.5811 54.6771 32.1467 55.6644 31.2779C56.2173 30.804 56.7109 30.2116 57.1453 29.5008C57.6192 28.7504 58.0339 28.0593 58.3893 27.4274C58.5868 27.072 58.725 26.993 58.804 27.1905C58.883 27.3879 58.9225 27.7039 58.9225 28.1383C58.9225 28.4937 58.883 28.8886 58.804 29.323C58.7645 29.718 58.6658 30.0339 58.5078 30.2709C57.9549 31.2582 57.323 32.0875 56.6122 32.7589C55.9013 33.3907 55.151 33.8646 54.3611 34.1806C53.7293 34.4175 53.0776 34.536 52.4063 34.536C51.498 34.536 50.6489 34.2793 49.859 33.7659C49.1087 33.213 48.5163 32.3837 48.0819 31.2779C47.2526 32.5022 46.4825 33.6277 45.7716 34.6545C45.1002 35.6418 44.5868 36.3526 44.2314 36.787C43.0467 38.2877 41.6842 39.6107 40.144 40.756C38.6433 41.8618 36.9846 42.4147 35.168 42.4147ZM67.8813 41.1707C66.0647 42.1185 64.1493 42.5924 62.1352 42.5924C60.437 42.5924 58.8574 42.1777 57.3962 41.3484C55.9349 40.519 54.9476 39.1961 54.4343 37.3794C54.1973 36.5501 54.0788 35.6813 54.0788 34.773C54.0788 33.2723 54.3355 31.7321 54.8489 30.1524C55.4018 28.5332 56.1127 27.0523 56.9815 25.7095C58.3242 23.6164 60.0224 21.8788 62.076 20.4966C64.1296 19.1143 66.4003 18.4232 68.8883 18.4232C70.7445 18.4232 72.1859 18.8971 73.2127 19.845C74.2395 20.7928 74.7529 21.8985 74.7529 23.1623C74.7529 24.663 74.2395 25.986 73.2127 27.1312C72.2254 28.237 70.9222 29.0861 69.303 29.6785C68.5132 29.9549 67.6641 30.1721 66.7558 30.3301C65.8869 30.4486 65.0576 30.5078 64.2678 30.5078C62.6486 30.5078 61.4046 30.2906 60.5358 29.8562C59.7854 31.7913 59.4103 33.5684 59.4103 35.1876C59.4103 36.6488 59.7459 37.8533 60.4173 38.8011C61.0887 39.7095 62.1549 40.1636 63.6162 40.1636C64.8404 40.1636 66.0449 39.8279 67.2297 39.1566C68.4539 38.4852 69.5795 37.6559 70.6063 36.6686C71.6725 35.6813 72.5611 34.7335 73.272 33.8251C73.8249 33.1538 74.2988 32.5219 74.6937 31.9295C75.0886 31.3371 75.5033 30.6658 75.9377 29.9154C76.3721 29.1256 76.8855 28.158 77.4779 27.0128C77.6358 26.7363 77.7741 26.5981 77.8925 26.5981C78.1295 26.5981 78.248 26.914 78.248 27.5459C78.248 27.9013 78.1887 28.2963 78.0703 28.7307C77.9913 29.1256 77.8333 29.5403 77.5963 29.9747C77.0435 30.962 76.3721 32.048 75.5823 33.2328C74.8319 34.378 74.0618 35.4838 73.272 36.5501C72.5611 37.4979 71.7515 38.3667 70.8432 39.1566C69.9349 39.9464 68.9476 40.6178 67.8813 41.1707ZM62.4906 28.553C62.6881 28.6714 62.9053 28.7504 63.1423 28.7899C63.3792 28.8294 63.6162 28.8491 63.8531 28.8491C64.6429 28.8491 65.4328 28.6714 66.2226 28.316C67.0125 27.9211 67.6838 27.5262 68.2367 27.1312C69.145 26.4994 69.9151 25.749 70.547 24.8802C71.1789 24.0114 71.5343 23.0241 71.6133 21.9183C71.6528 21.4444 71.5343 21.0495 71.2579 20.7335C71.0209 20.3781 70.5865 20.2004 69.9546 20.2004C69.6387 20.2004 69.2438 20.2596 68.7699 20.3781C68.138 20.5361 67.5061 20.8323 66.8743 21.2667C66.2424 21.7011 65.6303 22.2145 65.0379 22.8069C64.8404 23.0043 64.485 23.3992 63.9716 23.9916C63.4977 24.5445 63.0435 25.1764 62.6091 25.8872C62.1747 26.5586 61.9575 27.151 61.9575 27.6644C61.9575 28.0988 62.1352 28.395 62.4906 28.553ZM80.1079 42.3554C78.9627 42.3554 78.0938 41.9013 77.5015 40.993C77.225 40.5585 77.0276 40.0451 76.9091 39.4528C76.7906 38.8604 76.7314 38.2483 76.7314 37.6164C76.7314 36.9845 76.7709 36.3526 76.8498 35.7208C76.9288 35.0494 77.0276 34.3978 77.146 33.7659C77.3435 32.7391 77.5607 31.811 77.7977 30.9817C78.0741 30.1129 78.3505 29.2836 78.627 28.4937V28.4345C78.3111 29.0269 77.9161 29.6785 77.4422 30.3893C76.9683 31.0607 76.6326 31.5543 76.4352 31.8703C76.1587 32.3047 75.9415 32.5219 75.7836 32.5219C75.6256 32.5219 75.5466 32.3442 75.5466 31.9888C75.5466 31.1989 75.7836 30.3301 76.2575 29.3823C76.5734 28.7504 77.0078 27.9408 77.5607 26.9535C78.1136 25.9267 78.6862 24.821 79.2786 23.6362C79.871 22.4514 80.3844 21.3062 80.8188 20.2004H76.8498C76.6524 20.2004 76.6129 20.0424 76.7314 19.7265C76.8498 19.4105 77.0276 19.1144 77.2645 18.8379C77.5015 18.522 77.6792 18.364 77.7977 18.364H82.2998C82.7342 17.3372 83.2278 16.2314 83.7807 15.0467C84.3731 13.8619 85.0247 12.7561 85.7356 11.7293C86.4859 10.663 87.2955 9.79422 88.1643 9.12286C89.0331 8.45149 89.9612 8.11581 90.9485 8.11581C91.3829 8.11581 91.9161 8.11581 92.5479 8.11581C93.2193 8.11581 93.634 8.09606 93.7919 8.05657C92.9626 8.60946 91.9951 9.71524 90.8893 11.3739C89.7835 12.9931 88.579 15.3231 87.2758 18.364H93.2588C93.3773 18.364 93.3378 18.522 93.1403 18.8379C92.9429 19.1144 92.6862 19.4105 92.3702 19.7265C92.0938 20.0424 91.8173 20.2004 91.5409 20.2004H86.4464C85.933 21.5036 85.3604 22.9253 84.7285 24.4655C84.1361 26.0057 83.5832 27.5262 83.0698 29.0269C82.5959 30.4881 82.2405 31.8308 82.0036 33.055C81.8456 33.8054 81.7666 34.4965 81.7666 35.1284C81.7666 36.6291 82.2405 37.3794 83.1883 37.3794C83.8202 37.3794 84.5705 37.0635 85.4394 36.4316C86.3082 35.7997 87.177 34.9309 88.0458 33.8251C88.8357 32.7983 89.586 31.6926 90.2969 30.5078C91.0472 29.323 91.6791 28.237 92.1925 27.2497C92.3505 26.9733 92.4887 26.835 92.6072 26.835C92.8441 26.835 92.9626 27.151 92.9626 27.7829C92.9626 28.0988 92.9034 28.474 92.7849 28.9084C92.7059 29.3033 92.5479 29.6982 92.311 30.0931C91.7581 31.041 91.1065 32.0875 90.3561 33.2328C89.6058 34.3385 88.8357 35.4443 88.0458 36.5501C87.493 37.261 86.7624 38.0705 85.854 38.9789C84.9852 39.8872 84.0374 40.677 83.0106 41.3484C82.0233 42.0197 81.0558 42.3554 80.1079 42.3554ZM94.8596 42.3554C93.7144 42.3554 92.8455 41.9013 92.2531 40.993C91.9767 40.5585 91.7792 40.0451 91.6608 39.4528C91.5423 38.8604 91.4831 38.2483 91.4831 37.6164C91.4831 36.9845 91.5225 36.3526 91.6015 35.7208C91.6805 35.0494 91.7792 34.3978 91.8977 33.7659C92.0952 32.7391 92.3124 31.811 92.5493 30.9817C92.8258 30.1129 93.1022 29.2836 93.3787 28.4937V28.4345C93.0627 29.0269 92.6678 29.6785 92.1939 30.3893C91.72 31.0607 91.3843 31.5543 91.1869 31.8703C90.9104 32.3047 90.6932 32.5219 90.5352 32.5219C90.3773 32.5219 90.2983 32.3442 90.2983 31.9888C90.2983 31.1989 90.5352 30.3301 91.0091 29.3823C91.3251 28.7504 91.7595 27.9408 92.3124 26.9535C92.8653 25.9267 93.4379 24.821 94.0303 23.6362C94.6227 22.4514 95.1361 21.3062 95.5705 20.2004H91.6015C91.4041 20.2004 91.3646 20.0424 91.4831 19.7265C91.6015 19.4105 91.7792 19.1144 92.0162 18.8379C92.2531 18.522 92.4309 18.364 92.5493 18.364H97.0514C97.4858 17.3372 97.9795 16.2314 98.5324 15.0467C99.1248 13.8619 99.7764 12.7561 100.487 11.7293C101.238 10.663 102.047 9.79422 102.916 9.12286C103.785 8.45149 104.713 8.11581 105.7 8.11581C106.135 8.11581 106.668 8.11581 107.3 8.11581C107.971 8.11581 108.386 8.09606 108.544 8.05657C107.714 8.60946 106.747 9.71524 105.641 11.3739C104.535 12.9931 103.331 15.3231 102.027 18.364H108.01C108.129 18.364 108.089 18.522 107.892 18.8379C107.695 19.1144 107.438 19.4105 107.122 19.7265C106.845 20.0424 106.569 20.2004 106.293 20.2004H101.198C100.685 21.5036 100.112 22.9253 99.4802 24.4655C98.8878 26.0057 98.3349 27.5262 97.8215 29.0269C97.3476 30.4881 96.9922 31.8308 96.7552 33.055C96.5973 33.8054 96.5183 34.4965 96.5183 35.1284C96.5183 36.6291 96.9922 37.3794 97.94 37.3794C98.5719 37.3794 99.3222 37.0635 100.191 36.4316C101.06 35.7997 101.929 34.9309 102.798 33.8251C103.587 32.7983 104.338 31.6926 105.049 30.5078C105.799 29.323 106.431 28.237 106.944 27.2497C107.102 26.9733 107.24 26.835 107.359 26.835C107.596 26.835 107.714 27.151 107.714 27.7829C107.714 28.0988 107.655 28.474 107.537 28.9084C107.458 29.3033 107.3 29.6982 107.063 30.0931C106.51 31.041 105.858 32.0875 105.108 33.2328C104.357 34.3385 103.587 35.4443 102.798 36.5501C102.245 37.261 101.514 38.0705 100.606 38.9789C99.7369 39.8872 98.7891 40.677 97.7623 41.3484C96.775 42.0197 95.8074 42.3554 94.8596 42.3554ZM118.615 41.1707C116.799 42.1185 114.883 42.5924 112.869 42.5924C111.171 42.5924 109.592 42.1777 108.13 41.3484C106.669 40.519 105.682 39.1961 105.168 37.3794C104.931 36.5501 104.813 35.6813 104.813 34.773C104.813 33.2723 105.07 31.7321 105.583 30.1524C106.136 28.5332 106.847 27.0523 107.716 25.7095C109.058 23.6164 110.757 21.8788 112.81 20.4966C114.864 19.1143 117.135 18.4232 119.623 18.4232C121.479 18.4232 122.92 18.8971 123.947 19.845C124.974 20.7928 125.487 21.8985 125.487 23.1623C125.487 24.663 124.974 25.986 123.947 27.1312C122.96 28.237 121.656 29.0861 120.037 29.6785C119.247 29.9549 118.398 30.1721 117.49 30.3301C116.621 30.4486 115.792 30.5078 115.002 30.5078C113.383 30.5078 112.139 30.2906 111.27 29.8562C110.52 31.7913 110.144 33.5684 110.144 35.1876C110.144 36.6488 110.48 37.8533 111.151 38.8011C111.823 39.7095 112.889 40.1636 114.35 40.1636C115.575 40.1636 116.779 39.8279 117.964 39.1566C119.188 38.4852 120.314 37.6559 121.34 36.6686C122.407 35.6813 123.295 34.7335 124.006 33.8251C124.559 33.1538 125.033 32.5219 125.428 31.9295C125.823 31.3371 126.237 30.6658 126.672 29.9154C127.106 29.1256 127.62 28.158 128.212 27.0128C128.37 26.7363 128.508 26.5981 128.627 26.5981C128.864 26.5981 128.982 26.914 128.982 27.5459C128.982 27.9013 128.923 28.2963 128.804 28.7307C128.725 29.1256 128.567 29.5403 128.331 29.9747C127.778 30.962 127.106 32.048 126.316 33.2328C125.566 34.378 124.796 35.4838 124.006 36.5501C123.295 37.4979 122.486 38.3667 121.577 39.1566C120.669 39.9464 119.682 40.6178 118.615 41.1707ZM113.225 28.553C113.422 28.6714 113.639 28.7504 113.876 28.7899C114.113 28.8294 114.35 28.8491 114.587 28.8491C115.377 28.8491 116.167 28.6714 116.957 28.316C117.747 27.9211 118.418 27.5262 118.971 27.1312C119.879 26.4994 120.649 25.749 121.281 24.8802C121.913 24.0114 122.268 23.0241 122.347 21.9183C122.387 21.4444 122.268 21.0495 121.992 20.7335C121.755 20.3781 121.321 20.2004 120.689 20.2004C120.373 20.2004 119.978 20.2596 119.504 20.3781C118.872 20.5361 118.24 20.8323 117.608 21.2667C116.977 21.7011 116.364 22.2145 115.772 22.8069C115.575 23.0043 115.219 23.3992 114.706 23.9916C114.232 24.5445 113.778 25.1764 113.343 25.8872C112.909 26.5586 112.692 27.151 112.692 27.6644C112.692 28.0988 112.869 28.395 113.225 28.553ZM153.578 42C153.894 40.5783 154.328 39.0381 154.881 37.3794C155.434 35.6813 156.027 33.9239 156.658 32.1072C157.567 29.7377 158.021 27.5854 158.021 25.6503C158.021 25.4528 158.021 25.2554 158.021 25.0579C158.021 24.821 158.001 24.6037 157.962 24.4063C157.725 22.7081 157.29 20.8125 156.658 18.7194C156.027 16.6264 155.335 14.5728 154.585 12.5587C153.835 10.5841 152.986 8.88591 152.038 7.46419C151.09 6.04248 149.945 5.33162 148.602 5.33162C147.773 5.33162 146.845 5.68705 145.818 6.39791C144.831 7.10876 143.705 8.29353 142.441 9.95219C142.402 9.99168 142.362 10.0114 142.323 10.0114C142.204 10.0114 142.125 9.87321 142.086 9.59676C142.046 9.32032 142.046 9.12286 142.086 9.00438C142.955 7.26673 143.863 5.76603 144.811 4.50229C145.798 3.23854 146.963 2.29073 148.306 1.65886C149.688 0.987494 151.406 0.711049 153.46 0.829524C155.434 0.908509 156.895 1.65886 157.843 3.08057C158.791 4.50229 159.64 6.4374 160.39 8.88591C160.983 10.9395 161.595 13.151 162.227 15.5206C162.859 17.8506 163.431 20.0227 163.945 22.0368C165.445 19.9832 167.045 17.7321 168.743 15.2836C170.441 12.8351 172.12 10.4261 173.778 8.05657C175.476 5.68705 176.997 3.61372 178.34 1.83657C178.774 1.28368 179.445 0.948001 180.354 0.829524C181.262 0.671555 182.21 0.592571 183.197 0.592571C183.829 0.592571 184.441 0.612318 185.033 0.651812C185.626 0.651812 186.139 0.651812 186.574 0.651812C184.836 1.87606 182.96 3.41625 180.946 5.27238C178.932 7.12851 176.938 9.20184 174.963 11.4924C173.225 13.5065 171.448 15.8957 169.632 18.6602C167.815 21.4246 166.176 24.4063 164.715 27.6051C163.254 30.7645 162.168 33.9831 161.457 37.261C161.299 37.9323 161.18 38.5642 161.101 39.1566C161.022 39.7095 160.983 40.2031 160.983 40.6375C160.983 41.2694 161.062 41.7236 161.22 42H153.578ZM174.763 42.3554C173.737 42.3554 172.888 41.8815 172.216 40.9337C171.584 39.9464 171.347 38.426 171.505 36.3724C171.584 35.5036 171.782 34.3978 172.098 33.055C172.414 31.7123 172.828 30.2709 173.342 28.7307C173.895 27.151 174.507 25.6305 175.178 24.1693C175.85 22.6686 176.58 21.3457 177.37 20.2004C177.804 19.608 178.239 19.2526 178.673 19.1341C179.147 18.9761 179.996 18.8971 181.22 18.8971H184.064C183.392 19.845 182.682 21.0297 181.931 22.4514C181.181 23.8731 180.49 25.2949 179.858 26.7166C179.226 28.0988 178.732 29.2638 178.377 30.2116C178.298 30.4881 178.14 30.9817 177.903 31.6926C177.666 32.3639 177.449 33.1143 177.251 33.9436C177.054 34.773 176.955 35.543 176.955 36.2539C176.955 36.8858 177.074 37.4189 177.311 37.8533C177.548 38.2877 177.982 38.505 178.614 38.505C179.364 38.4655 180.174 37.9916 181.043 37.0832C181.912 36.1749 182.78 35.0099 183.649 33.5882C184.518 32.1665 185.367 30.6855 186.196 29.1453C187.065 27.5657 187.835 26.1044 188.507 24.7617C189.218 23.3795 189.81 22.3132 190.284 21.5629C190.876 20.6545 191.508 19.8647 192.179 19.1933C192.851 18.4825 193.621 18.127 194.49 18.127C194.806 18.127 195.22 18.1468 195.734 18.1863C196.287 18.1863 196.82 18.1863 197.333 18.1863C197.886 18.1863 198.261 18.1665 198.459 18.127C198.222 18.285 197.945 18.601 197.629 19.0749C197.313 19.5488 196.998 20.0424 196.682 20.5558C196.405 21.0297 196.188 21.4246 196.03 21.7406C195.003 23.7942 193.996 25.8675 193.009 27.9606C192.061 30.0142 191.35 31.969 190.876 33.8251C190.679 34.536 190.58 35.1481 190.58 35.6615C190.58 36.8463 190.975 37.4387 191.765 37.4387C192.318 37.4387 193.108 37.0437 194.134 36.2539C194.924 35.622 195.694 34.8124 196.445 33.8251C197.274 32.7983 198.044 31.6926 198.755 30.5078C199.466 29.323 200.078 28.237 200.591 27.2497C200.749 26.9733 200.887 26.835 201.006 26.835C201.243 26.835 201.361 27.151 201.361 27.7829C201.361 28.0988 201.302 28.474 201.184 28.9084C201.105 29.3033 200.947 29.6982 200.71 30.0931C200.157 31.041 199.505 32.0875 198.755 33.2328C198.005 34.3385 197.234 35.4443 196.445 36.5501C195.892 37.261 195.161 38.0705 194.253 38.9789C193.344 39.8872 192.377 40.677 191.35 41.3484C190.363 42.0197 189.395 42.3554 188.447 42.3554C187.895 42.3554 187.381 42.237 186.907 42C186.433 41.8025 186.038 41.3879 185.723 40.756C185.328 39.9267 185.13 38.8011 185.13 37.3794C185.13 36.945 185.15 36.4909 185.189 36.017C185.229 35.5036 185.288 34.9902 185.367 34.4768C184.775 35.3061 184.143 36.0762 183.471 36.787C182.84 37.4979 182.188 38.2088 181.517 38.9196C180.016 40.4203 178.732 41.3681 177.666 41.763C176.639 42.158 175.672 42.3554 174.763 42.3554ZM214.229 42.3554C212.886 42.3554 211.958 41.9605 211.445 41.1707C210.971 40.3413 210.734 39.3935 210.734 38.3272C210.734 37.024 210.991 35.4641 211.504 33.6474C212.017 31.7913 212.61 29.9352 213.281 28.079C213.992 26.1834 214.624 24.505 215.177 23.0438C215.335 22.6884 215.414 22.3132 215.414 21.9183C215.414 21.4839 215.276 21.1679 214.999 20.9705C214.723 20.773 214.367 20.6743 213.933 20.6743C213.301 20.6743 212.59 20.8717 211.8 21.2667C210.576 21.8985 209.411 22.9056 208.305 24.2878C207.199 25.67 206.311 27.1115 205.639 28.6122C204.889 30.3103 204.218 32.0085 203.625 33.7067C203.033 35.4048 202.559 36.787 202.204 37.8533C201.967 38.5247 201.75 39.2158 201.552 39.9267C201.355 40.6375 201.157 41.3286 200.96 42H195.214C195.214 42 195.352 41.5063 195.628 40.519C195.865 39.5317 196.181 38.5444 196.576 37.5571C197.247 35.8195 197.919 34.0818 198.59 32.3442C199.301 30.6065 199.913 29.0663 200.427 27.7236C200.585 27.3287 200.821 26.5981 201.137 25.5318C201.493 24.426 201.809 23.2808 202.085 22.096C202.401 20.9112 202.559 19.9437 202.559 19.1933C202.559 18.7589 202.5 18.4627 202.381 18.3048C202.737 18.3048 203.132 18.3048 203.566 18.3048C204.04 18.2653 204.474 18.2455 204.869 18.2455C205.422 18.2455 205.936 18.2653 206.41 18.3048C206.923 18.3443 207.259 18.443 207.417 18.601C207.891 18.9564 208.127 19.4698 208.127 20.1411C208.127 20.615 208.029 21.089 207.831 21.5629C207.673 22.0368 207.555 22.4317 207.476 22.7476C208.029 22.2342 208.601 21.7406 209.194 21.2667C209.786 20.7928 210.694 20.1806 211.919 19.4303C212.63 18.9959 213.518 18.6404 214.584 18.364C215.651 18.0876 216.618 17.9493 217.487 17.9493C219.738 17.9493 220.864 18.9959 220.864 21.089C220.864 21.4444 220.824 21.8393 220.745 22.2737C220.706 22.7081 220.587 23.182 220.39 23.6954C220.192 24.3273 219.876 25.1961 219.442 26.3019C219.008 27.4077 218.553 28.5924 218.079 29.8562C217.645 31.0804 217.27 32.2455 216.954 33.3512C216.638 34.457 216.48 35.3456 216.48 36.017C216.48 36.9648 216.835 37.4387 217.546 37.4387C218.178 37.4387 218.968 37.0437 219.916 36.2539C220.824 35.5036 221.614 34.694 222.285 33.8251C223.115 32.7983 223.865 31.7123 224.536 30.567C225.247 29.3823 225.859 28.2963 226.373 27.309C226.57 26.993 226.709 26.835 226.787 26.835C227.024 26.835 227.143 27.1707 227.143 27.8421C227.143 28.158 227.084 28.5332 226.965 28.9676C226.886 29.3625 226.748 29.7377 226.551 30.0931C225.998 31.041 225.346 32.0875 224.596 33.2328C223.845 34.378 223.075 35.4838 222.285 36.5501C221.733 37.3004 221.002 38.1298 220.094 39.0381C219.185 39.9464 218.218 40.7363 217.191 41.4076C216.164 42.0395 215.177 42.3554 214.229 42.3554ZM242.34 42.3554C241.116 42.3554 240.267 41.8815 239.793 40.9337C239.359 39.9859 239.141 38.8209 239.141 37.4387C239.141 36.1749 239.26 34.9309 239.497 33.7067C239.615 33.1538 239.734 32.6009 239.852 32.048C240.01 31.4556 240.188 30.8435 240.385 30.2116C239.714 31.4359 239.003 32.6206 238.253 33.7659C237.542 34.9112 236.811 35.9182 236.061 36.787C234.797 38.3272 233.455 39.6107 232.033 40.6375C230.651 41.6643 229.268 42.1777 227.886 42.1777C226.78 42.1777 225.833 41.7828 225.043 40.993C224.292 40.1636 223.917 38.7419 223.917 36.7278C223.917 34.6742 224.273 32.5614 224.983 30.3893C225.694 28.2173 226.682 26.2032 227.945 24.347C229.249 22.4514 230.769 20.931 232.507 19.7857C234.284 18.6404 236.219 18.0678 238.312 18.0678C238.983 18.0678 239.714 18.1665 240.504 18.364C241.294 18.5615 242.024 18.9366 242.696 19.4895C243.367 20.0029 243.821 20.7335 244.058 21.6813C244.098 21.6023 244.137 21.5431 244.177 21.5036C244.256 21.4641 244.315 21.4246 244.354 21.3851C244.907 20.5163 245.539 19.7857 246.25 19.1933C246.961 18.601 247.751 18.3048 248.619 18.3048C249.054 18.3048 249.666 18.3245 250.456 18.364C251.246 18.4035 251.818 18.4035 252.174 18.364C251.976 18.522 251.7 18.8379 251.344 19.3118C251.029 19.7857 250.732 20.2794 250.456 20.7928C250.179 21.2667 249.962 21.6418 249.804 21.9183C248.738 23.9719 247.77 26.0057 246.902 28.0198C246.033 30.0339 245.361 31.969 244.887 33.8251C244.769 34.2201 244.69 34.5952 244.651 34.9507C244.611 35.2666 244.591 35.5825 244.591 35.8985C244.591 36.9253 244.927 37.4387 245.598 37.4387C246.23 37.4387 247.02 37.0437 247.968 36.2539C249.35 35.1481 250.555 33.7659 251.581 32.1072C252.648 30.4486 253.576 28.8491 254.366 27.309C254.524 27.0325 254.662 26.8943 254.78 26.8943C255.017 26.8943 255.136 27.23 255.136 27.9013C255.136 28.2173 255.076 28.5727 254.958 28.9676C254.879 29.3625 254.741 29.7377 254.543 30.0931C253.99 31.041 253.26 32.206 252.351 33.5882C251.483 34.9704 250.495 36.3329 249.39 37.6756C248.284 38.9789 247.119 40.0846 245.895 40.993C244.71 41.9013 243.525 42.3554 242.34 42.3554ZM230.552 37.2017C230.67 37.2412 230.848 37.261 231.085 37.261C231.835 37.261 232.645 36.945 233.514 36.3131C234.383 35.6813 235.251 34.8717 236.12 33.8844C236.989 32.8576 237.759 31.8308 238.431 30.804C240.168 28.0396 241.452 25.9662 242.281 24.584C243.11 23.2018 243.584 22.4119 243.703 22.2145C243.505 21.5431 243.15 21.0495 242.636 20.7335C242.163 20.4176 241.59 20.2596 240.919 20.2596C240.05 20.2596 239.122 20.4966 238.134 20.9705C237.187 21.4444 236.377 22.017 235.706 22.6884C234.679 23.7152 233.691 25.0382 232.744 26.6573C231.835 28.2765 231.085 29.8759 230.493 31.4556C229.94 33.0353 229.663 34.3583 229.663 35.4246C229.663 36.4119 229.959 37.0043 230.552 37.2017ZM257.07 42.3554C255.925 42.3554 255.056 41.9013 254.464 40.993C254.187 40.5585 253.99 40.0451 253.871 39.4528C253.753 38.8604 253.694 38.2483 253.694 37.6164C253.694 36.9845 253.733 36.3526 253.812 35.7208C253.891 35.0494 253.99 34.3978 254.108 33.7659C254.306 32.7391 254.523 31.811 254.76 30.9817C255.036 30.1129 255.313 29.2836 255.589 28.4937V28.4345C255.273 29.0269 254.878 29.6785 254.404 30.3893C253.931 31.0607 253.595 31.5543 253.397 31.8703C253.121 32.3047 252.904 32.5219 252.746 32.5219C252.588 32.5219 252.509 32.3442 252.509 31.9888C252.509 31.1989 252.746 30.3301 253.22 29.3823C253.536 28.7504 253.97 27.9408 254.523 26.9535C255.076 25.9267 255.648 24.821 256.241 23.6362C256.833 22.4514 257.347 21.3062 257.781 20.2004H253.812C253.615 20.2004 253.575 20.0424 253.694 19.7265C253.812 19.4105 253.99 19.1144 254.227 18.8379C254.464 18.522 254.641 18.364 254.76 18.364H259.262C259.696 17.3372 260.19 16.2314 260.743 15.0467C261.335 13.8619 261.987 12.7561 262.698 11.7293C263.448 10.663 264.258 9.79422 265.127 9.12286C265.995 8.45149 266.923 8.11581 267.911 8.11581C268.345 8.11581 268.878 8.11581 269.51 8.11581C270.182 8.11581 270.596 8.09606 270.754 8.05657C269.925 8.60946 268.957 9.71524 267.852 11.3739C266.746 12.9931 265.541 15.3231 264.238 18.364H270.221C270.34 18.364 270.3 18.522 270.103 18.8379C269.905 19.1144 269.648 19.4105 269.332 19.7265C269.056 20.0424 268.78 20.2004 268.503 20.2004H263.409C262.895 21.5036 262.323 22.9253 261.691 24.4655C261.098 26.0057 260.545 27.5262 260.032 29.0269C259.558 30.4881 259.203 31.8308 258.966 33.055C258.808 33.8054 258.729 34.4965 258.729 35.1284C258.729 36.6291 259.203 37.3794 260.151 37.3794C260.782 37.3794 261.533 37.0635 262.402 36.4316C263.27 35.7997 264.139 34.9309 265.008 33.8251C265.798 32.7983 266.548 31.6926 267.259 30.5078C268.009 29.323 268.641 28.237 269.155 27.2497C269.313 26.9733 269.451 26.835 269.569 26.835C269.806 26.835 269.925 27.151 269.925 27.7829C269.925 28.0988 269.866 28.474 269.747 28.9084C269.668 29.3033 269.51 29.6982 269.273 30.0931C268.72 31.041 268.069 32.0875 267.318 33.2328C266.568 34.3385 265.798 35.4443 265.008 36.5501C264.455 37.261 263.725 38.0705 262.816 38.9789C261.947 39.8872 261 40.677 259.973 41.3484C258.986 42.0197 258.018 42.3554 257.07 42.3554ZM276.798 42.4147C275.534 42.4147 274.626 41.8815 274.073 40.8152C273.638 39.8674 273.421 38.7419 273.421 37.4387C273.421 35.9775 273.638 34.3583 274.073 32.5811C274.507 30.804 275.1 28.9874 275.85 27.1312C276.126 26.4599 276.482 25.6108 276.916 24.584C277.39 23.5572 277.943 22.5502 278.575 21.5629C278.022 22.0368 277.37 22.4317 276.62 22.7476C275.87 23.0241 275.139 23.1623 274.428 23.1623C273.875 23.1623 273.421 23.0833 273.066 22.9253C272.75 23.5572 272.237 24.584 271.526 26.0057C270.815 27.4274 269.867 29.1058 268.682 31.041C268.564 31.2384 268.445 31.2384 268.327 31.041C268.248 30.804 268.208 30.4881 268.208 30.0931C268.208 29.7772 268.248 29.4415 268.327 29.0861C268.406 28.7307 268.524 28.395 268.682 28.079C269.077 27.3287 269.472 26.5586 269.867 25.7688C270.262 24.9394 270.617 24.2088 270.933 23.577C271.249 22.9451 271.427 22.5502 271.466 22.3922C270.756 22.0368 270.222 21.5431 269.867 20.9112C269.512 20.2399 269.334 19.5883 269.334 18.9564C269.334 18.3245 269.472 17.7519 269.749 17.2385C270.064 16.7251 270.519 16.3302 271.111 16.0537C271.466 15.9352 271.802 15.876 272.118 15.876C272.987 15.876 273.698 16.1524 274.251 16.7053C274.211 16.8633 274.172 17.041 274.132 17.2385C274.132 17.3964 274.132 17.5742 274.132 17.7716C274.132 18.9959 274.626 19.9042 275.613 20.4966C276.6 21.089 277.667 21.3062 278.812 21.1482C279.365 20.3584 279.997 19.6672 280.708 19.0749C281.418 18.4825 282.189 18.1863 283.018 18.1863C283.452 18.1863 284.064 18.206 284.854 18.2455C285.684 18.285 286.276 18.285 286.631 18.2455C286.394 18.4035 286.118 18.7194 285.802 19.1933C285.486 19.6672 285.19 20.1609 284.913 20.6743C284.637 21.1877 284.42 21.5826 284.262 21.859C283.196 23.9126 282.208 25.9662 281.3 28.0198C280.392 30.0339 279.701 31.969 279.227 33.8251C279.148 34.1806 279.069 34.5163 278.99 34.8322C278.95 35.1086 278.93 35.4048 278.93 35.7208C278.93 36.9055 279.325 37.4979 280.115 37.4979C280.668 37.4979 281.458 37.103 282.485 36.3131C283.393 35.5628 284.203 34.7335 284.913 33.8251C285.703 32.7983 286.454 31.6926 287.165 30.5078C287.875 29.323 288.487 28.237 289.001 27.2497C289.198 26.9338 289.337 26.7758 289.416 26.7758C289.653 26.7758 289.771 27.1312 289.771 27.8421C289.771 28.1185 289.731 28.4542 289.653 28.8491C289.574 29.2441 289.435 29.6192 289.238 29.9747C288.645 30.962 287.974 32.048 287.224 33.2328C286.473 34.378 285.703 35.5036 284.913 36.6093C284.4 37.3202 283.669 38.1298 282.722 39.0381C281.813 39.9464 280.826 40.7363 279.76 41.4076C278.733 42.079 277.746 42.4147 276.798 42.4147ZM304.934 42.3554C303.709 42.3554 302.86 41.8815 302.386 40.9337C301.952 39.9859 301.735 38.8209 301.735 37.4387C301.735 36.1749 301.853 34.9309 302.09 33.7067C302.209 33.1538 302.327 32.6009 302.446 32.048C302.604 31.4556 302.781 30.8435 302.979 30.2116C302.307 31.4359 301.597 32.6206 300.846 33.7659C300.135 34.9112 299.405 35.9182 298.654 36.787C297.391 38.3272 296.048 39.6107 294.626 40.6375C293.244 41.6643 291.862 42.1777 290.48 42.1777C289.374 42.1777 288.426 41.7828 287.636 40.993C286.886 40.1636 286.511 38.7419 286.511 36.7278C286.511 34.6742 286.866 32.5614 287.577 30.3893C288.288 28.2173 289.275 26.2032 290.539 24.347C291.842 22.4514 293.362 20.931 295.1 19.7857C296.877 18.6404 298.812 18.0678 300.905 18.0678C301.577 18.0678 302.307 18.1665 303.097 18.364C303.887 18.5615 304.618 18.9366 305.289 19.4895C305.96 20.0029 306.415 20.7335 306.652 21.6813C306.691 21.6023 306.731 21.5431 306.77 21.5036C306.849 21.4641 306.908 21.4246 306.948 21.3851C307.501 20.5163 308.132 19.7857 308.843 19.1933C309.554 18.601 310.344 18.3048 311.213 18.3048C311.647 18.3048 312.259 18.3245 313.049 18.364C313.839 18.4035 314.412 18.4035 314.767 18.364C314.57 18.522 314.293 18.8379 313.938 19.3118C313.622 19.7857 313.326 20.2794 313.049 20.7928C312.773 21.2667 312.556 21.6418 312.398 21.9183C311.331 23.9719 310.364 26.0057 309.495 28.0198C308.626 30.0339 307.955 31.969 307.481 33.8251C307.362 34.2201 307.283 34.5952 307.244 34.9507C307.204 35.2666 307.185 35.5825 307.185 35.8985C307.185 36.9253 307.52 37.4387 308.192 37.4387C308.824 37.4387 309.613 37.0437 310.561 36.2539C311.943 35.1481 313.148 33.7659 314.175 32.1072C315.241 30.4486 316.169 28.8491 316.959 27.309C317.117 27.0325 317.255 26.8943 317.374 26.8943C317.611 26.8943 317.729 27.23 317.729 27.9013C317.729 28.2173 317.67 28.5727 317.551 28.9676C317.472 29.3625 317.334 29.7377 317.137 30.0931C316.584 31.041 315.853 32.206 314.945 33.5882C314.076 34.9704 313.089 36.3329 311.983 37.6756C310.877 38.9789 309.712 40.0846 308.488 40.993C307.303 41.9013 306.118 42.3554 304.934 42.3554ZM293.145 37.2017C293.264 37.2412 293.441 37.261 293.678 37.261C294.429 37.261 295.238 36.945 296.107 36.3131C296.976 35.6813 297.845 34.8717 298.714 33.8844C299.582 32.8576 300.353 31.8308 301.024 30.804C302.762 28.0396 304.045 25.9662 304.874 24.584C305.704 23.2018 306.178 22.4119 306.296 22.2145C306.099 21.5431 305.743 21.0495 305.23 20.7335C304.756 20.4176 304.183 20.2596 303.512 20.2596C302.643 20.2596 301.715 20.4966 300.728 20.9705C299.78 21.4444 298.97 22.017 298.299 22.6884C297.272 23.7152 296.285 25.0382 295.337 26.6573C294.429 28.2765 293.678 29.8759 293.086 31.4556C292.533 33.0353 292.257 34.3583 292.257 35.4246C292.257 36.4119 292.553 37.0043 293.145 37.2017ZM333.277 40.4006C332.763 39.9662 332.408 39.433 332.21 38.8011C332.013 38.1693 331.914 37.4782 331.914 36.7278C331.914 36.2539 331.934 35.78 331.973 35.3061C332.052 34.7927 332.131 34.2793 332.21 33.7659C332.526 32.1862 333.06 30.3103 333.81 28.1383C334.6 25.9662 335.488 23.6954 336.476 21.3259C337.502 18.9564 338.529 16.6658 339.556 14.4543C340.622 12.2032 341.57 10.2286 342.399 8.53048C343.268 6.79283 343.92 5.50933 344.354 4.68C344.512 4.36406 344.65 4.06787 344.769 3.79143C344.927 3.51499 345.085 3.25829 345.243 3.02133L343.11 3.31752C341.333 3.55448 339.497 3.92965 337.601 4.44305C335.745 4.95645 334.067 5.62781 332.566 6.45714C331.105 7.24698 330.038 8.21454 329.367 9.35981C329.328 9.47829 329.249 9.53752 329.13 9.53752C329.051 9.53752 328.992 9.45854 328.952 9.30057C328.873 9.1426 328.854 8.96489 328.893 8.76743C329.288 7.74064 329.782 6.75334 330.374 5.80553C330.966 4.85772 331.539 4.10737 332.092 3.55448C332.961 2.64616 334.146 1.99454 335.646 1.59962C337.147 1.2047 338.687 0.948001 340.267 0.829524C341.886 0.711049 343.268 0.651812 344.413 0.651812H356.083C358.808 0.651812 360.98 1.06648 362.6 1.89581C364.258 2.72514 365.443 3.83092 366.154 5.21314C366.865 6.55587 367.141 7.99733 366.983 9.53752C366.825 11.1962 366.351 12.6377 365.561 13.8619C364.772 15.0862 363.784 16.1327 362.6 17.0015C361.454 17.8309 360.25 18.5022 358.986 19.0156C357.762 19.4895 356.617 19.845 355.55 20.0819C358.868 20.7138 361.237 21.7998 362.659 23.34C364.081 24.8802 364.791 26.7166 364.791 28.8491C364.791 30.5473 364.377 32.1467 363.547 33.6474C362.758 35.1086 361.672 36.4316 360.289 37.6164C359.105 38.6432 357.545 39.5712 355.609 40.4006C353.674 41.1904 351.581 41.8223 349.33 42.2962C347.079 42.7701 344.848 43.007 342.636 43.007C340.78 43.007 339.023 42.7898 337.364 42.3554C335.705 41.9605 334.343 41.3089 333.277 40.4006ZM340.504 40.4006C341.057 40.4796 341.61 40.5388 342.162 40.5783C342.715 40.6178 343.268 40.6375 343.821 40.6375C345.756 40.6375 347.652 40.3611 349.508 39.8082C351.364 39.2158 352.983 38.2877 354.365 37.024C355.787 35.7603 356.794 34.1016 357.387 32.048C357.742 30.9027 357.92 29.7377 357.92 28.553C357.92 26.6968 357.446 25.0382 356.498 23.577C355.59 22.0763 354.148 21.2074 352.174 20.9705C351.739 21.089 351.088 21.2272 350.219 21.3851C349.35 21.5431 348.442 21.6813 347.494 21.7998C346.546 21.9183 345.736 21.9775 345.065 21.9775C344.433 21.9775 344.117 21.8393 344.117 21.5629C344.117 21.3259 344.295 21.0495 344.65 20.7335C345.006 20.3781 345.401 20.0819 345.835 19.845C346.27 19.5685 346.625 19.4105 346.901 19.371C347.612 19.2526 348.442 19.1933 349.389 19.1933C349.903 19.1933 350.416 19.2131 350.93 19.2526C351.483 19.2921 352.055 19.3513 352.648 19.4303C353.911 19.0354 354.958 18.5022 355.787 17.8309C356.617 17.1595 357.327 16.5276 357.92 15.9352C358.868 14.9479 359.598 13.8224 360.112 12.5587C360.625 11.2554 360.882 9.99168 360.882 8.76743C360.882 7.14825 360.487 5.90425 359.697 5.03543C358.947 4.12711 357.94 3.47549 356.676 3.08057C355.412 2.68565 354.05 2.46844 352.588 2.42895C351.877 3.37676 351.127 4.50229 350.337 5.80553C349.587 7.06927 348.876 8.37251 348.205 9.71524C347.533 11.058 346.941 12.302 346.428 13.4472C345.322 15.8168 344.157 18.4035 342.933 21.2074C341.748 24.0114 340.76 26.7363 339.971 29.3823C339.576 30.6065 339.181 31.9295 338.786 33.3512C338.43 34.7335 338.253 35.9775 338.253 37.0832C338.253 37.9521 338.411 38.6827 338.727 39.275C339.043 39.8674 339.635 40.2426 340.504 40.4006ZM385.113 42.3554C383.889 42.3554 383.04 41.8815 382.566 40.9337C382.132 39.9859 381.914 38.8209 381.914 37.4387C381.914 36.1749 382.033 34.9309 382.27 33.7067C382.388 33.1538 382.507 32.6009 382.625 32.048C382.783 31.4556 382.961 30.8435 383.158 30.2116C382.487 31.4359 381.776 32.6206 381.026 33.7659C380.315 34.9112 379.584 35.9182 378.834 36.787C377.57 38.3272 376.228 39.6107 374.806 40.6375C373.424 41.6643 372.041 42.1777 370.659 42.1777C369.553 42.1777 368.606 41.7828 367.816 40.993C367.065 40.1636 366.69 38.7419 366.69 36.7278C366.69 34.6742 367.046 32.5614 367.757 30.3893C368.467 28.2173 369.455 26.2032 370.718 24.347C372.022 22.4514 373.542 20.931 375.28 19.7857C377.057 18.6404 378.992 18.0678 381.085 18.0678C381.756 18.0678 382.487 18.1665 383.277 18.364C384.067 18.5615 384.797 18.9366 385.469 19.4895C386.14 20.0029 386.594 20.7335 386.831 21.6813C386.871 21.6023 386.91 21.5431 386.95 21.5036C387.029 21.4641 387.088 21.4246 387.127 21.3851C387.68 20.5163 388.312 19.7857 389.023 19.1933C389.734 18.601 390.524 18.3048 391.393 18.3048C391.827 18.3048 392.439 18.3245 393.229 18.364C394.019 18.4035 394.591 18.4035 394.947 18.364C394.749 18.522 394.473 18.8379 394.117 19.3118C393.802 19.7857 393.505 20.2794 393.229 20.7928C392.952 21.2667 392.735 21.6418 392.577 21.9183C391.511 23.9719 390.543 26.0057 389.675 28.0198C388.806 30.0339 388.134 31.969 387.661 33.8251C387.542 34.2201 387.463 34.5952 387.424 34.9507C387.384 35.2666 387.364 35.5825 387.364 35.8985C387.364 36.9253 387.7 37.4387 388.371 37.4387C389.003 37.4387 389.793 37.0437 390.741 36.2539C392.123 35.1481 393.328 33.7659 394.354 32.1072C395.421 30.4486 396.349 28.8491 397.139 27.309C397.297 27.0325 397.435 26.8943 397.553 26.8943C397.79 26.8943 397.909 27.23 397.909 27.9013C397.909 28.2173 397.849 28.5727 397.731 28.9676C397.652 29.3625 397.514 29.7377 397.316 30.0931C396.763 31.041 396.033 32.206 395.125 33.5882C394.256 34.9704 393.268 36.3329 392.163 37.6756C391.057 38.9789 389.892 40.0846 388.668 40.993C387.483 41.9013 386.298 42.3554 385.113 42.3554ZM373.325 37.2017C373.443 37.2412 373.621 37.261 373.858 37.261C374.608 37.261 375.418 36.945 376.287 36.3131C377.156 35.6813 378.024 34.8717 378.893 33.8844C379.762 32.8576 380.532 31.8308 381.204 30.804C382.941 28.0396 384.225 25.9662 385.054 24.584C385.883 23.2018 386.357 22.4119 386.476 22.2145C386.278 21.5431 385.923 21.0495 385.409 20.7335C384.936 20.4176 384.363 20.2596 383.692 20.2596C382.823 20.2596 381.895 20.4966 380.907 20.9705C379.96 21.4444 379.15 22.017 378.479 22.6884C377.452 23.7152 376.465 25.0382 375.517 26.6573C374.608 28.2765 373.858 29.8759 373.266 31.4556C372.713 33.0353 372.436 34.3583 372.436 35.4246C372.436 36.4119 372.733 37.0043 373.325 37.2017ZM402.746 42.5924C400.89 42.5924 399.389 42.2567 398.244 41.5853C397.099 40.8745 396.269 39.9464 395.756 38.8011C395.282 37.6164 395.045 36.3526 395.045 35.0099C395.045 33.6672 395.242 32.3047 395.637 30.9225C396.032 29.5403 396.565 28.237 397.237 27.0128C398.619 24.5248 400.317 22.4712 402.331 20.852C404.385 19.2328 406.893 18.4232 409.854 18.4232C411.711 18.4232 413.152 18.8971 414.179 19.845C415.206 20.7928 415.719 21.8985 415.719 23.1623C415.719 24.347 415.364 25.4331 414.653 26.4204C413.981 27.4077 413.073 27.9013 411.928 27.9013C411.296 27.9013 410.743 27.7236 410.269 27.3682C409.795 27.0128 409.558 26.4599 409.558 25.7095C409.558 25.591 409.558 25.4726 409.558 25.3541C409.598 25.1961 409.637 25.0382 409.677 24.8802C409.914 24.8407 410.249 24.7815 410.684 24.7025C411.158 24.584 411.533 24.3076 411.809 23.8731C412.323 23.1623 412.579 22.4514 412.579 21.7406C412.579 21.3062 412.441 20.9507 412.165 20.6743C411.928 20.3583 411.513 20.2004 410.921 20.2004C409.854 20.2004 408.768 20.5953 407.663 21.3851C406.557 22.1355 405.51 23.1425 404.523 24.4063C403.575 25.67 402.746 27.0523 402.035 28.553C400.929 30.962 400.376 33.1735 400.376 35.1876C400.376 36.6488 400.712 37.8533 401.383 38.8011C402.055 39.7095 403.121 40.1636 404.582 40.1636C406.438 40.1636 408.176 39.5317 409.795 38.268C411.454 36.9648 412.935 35.4641 414.238 33.7659C415.107 32.6601 415.877 31.5346 416.548 30.3893C417.259 29.2441 417.852 28.1975 418.326 27.2497C418.483 26.9733 418.622 26.835 418.74 26.835C418.977 26.835 419.096 27.1707 419.096 27.8421C419.096 28.158 419.036 28.5332 418.918 28.9676C418.839 29.3625 418.701 29.7377 418.503 30.0931C417.832 31.1989 417.141 32.3047 416.43 33.4105C415.759 34.5163 415.028 35.5628 414.238 36.5501C412.895 38.2877 411.316 39.7292 409.499 40.8745C407.682 42.0197 405.431 42.5924 402.746 42.5924ZM434.343 42.3554C433.119 42.3554 432.27 41.8815 431.796 40.9337C431.362 39.9859 431.145 38.8209 431.145 37.4387C431.145 36.1749 431.263 34.9309 431.5 33.7067C431.618 33.1538 431.737 32.6009 431.855 32.048C432.013 31.4556 432.191 30.8435 432.389 30.2116C431.717 31.4359 431.006 32.6206 430.256 33.7659C429.545 34.9112 428.815 35.9182 428.064 36.787C426.8 38.3272 425.458 39.6107 424.036 40.6375C422.654 41.6643 421.272 42.1777 419.889 42.1777C418.784 42.1777 417.836 41.7828 417.046 40.993C416.296 40.1636 415.92 38.7419 415.92 36.7278C415.92 34.6742 416.276 32.5614 416.987 30.3893C417.697 28.2173 418.685 26.2032 419.949 24.347C421.252 22.4514 422.772 20.931 424.51 19.7857C426.287 18.6404 428.222 18.0678 430.315 18.0678C430.987 18.0678 431.717 18.1665 432.507 18.364C433.297 18.5615 434.027 18.9366 434.699 19.4895C435.37 20.0029 435.824 20.7335 436.061 21.6813C436.101 21.6023 436.14 21.5431 436.18 21.5036C436.259 21.4641 436.318 21.4246 436.357 21.3851C436.91 20.5163 437.542 19.7857 438.253 19.1933C438.964 18.601 439.754 18.3048 440.623 18.3048C441.057 18.3048 441.669 18.3245 442.459 18.364C443.249 18.4035 443.821 18.4035 444.177 18.364C443.979 18.522 443.703 18.8379 443.348 19.3118C443.032 19.7857 442.735 20.2794 442.459 20.7928C442.183 21.2667 441.965 21.6418 441.807 21.9183C440.741 23.9719 439.774 26.0057 438.905 28.0198C438.036 30.0339 437.365 31.969 436.891 33.8251C436.772 34.2201 436.693 34.5952 436.654 34.9507C436.614 35.2666 436.594 35.5825 436.594 35.8985C436.594 36.9253 436.93 37.4387 437.601 37.4387C438.233 37.4387 439.023 37.0437 439.971 36.2539C441.353 35.1481 442.558 33.7659 443.585 32.1072C444.651 30.4486 445.579 28.8491 446.369 27.309C446.527 27.0325 446.665 26.8943 446.783 26.8943C447.02 26.8943 447.139 27.23 447.139 27.9013C447.139 28.2173 447.08 28.5727 446.961 28.9676C446.882 29.3625 446.744 29.7377 446.546 30.0931C445.994 31.041 445.263 32.206 444.355 33.5882C443.486 34.9704 442.499 36.3329 441.393 37.6756C440.287 38.9789 439.122 40.0846 437.898 40.993C436.713 41.9013 435.528 42.3554 434.343 42.3554ZM422.555 37.2017C422.673 37.2412 422.851 37.261 423.088 37.261C423.839 37.261 424.648 36.945 425.517 36.3131C426.386 35.6813 427.255 34.8717 428.123 33.8844C428.992 32.8576 429.762 31.8308 430.434 30.804C432.171 28.0396 433.455 25.9662 434.284 24.584C435.113 23.2018 435.587 22.4119 435.706 22.2145C435.508 21.5431 435.153 21.0495 434.64 20.7335C434.166 20.4176 433.593 20.2596 432.922 20.2596C432.053 20.2596 431.125 20.4966 430.137 20.9705C429.19 21.4444 428.38 22.017 427.709 22.6884C426.682 23.7152 425.695 25.0382 424.747 26.6573C423.839 28.2765 423.088 29.8759 422.496 31.4556C421.943 33.0353 421.666 34.3583 421.666 35.4246C421.666 36.4119 421.963 37.0043 422.555 37.2017Z" fill="#B19777"/>
</svg>
